<svg xmlns="http://www.w3.org/2000/svg" xmlns:xlink="http://www.w3.org/1999/xlink" width="25px" height="25px" viewBox="0 0 30 25" version="1.1">
    <!-- Generator: Sketch 52.4 (67378) - http://www.bohemiancoding.com/sketch -->
    <title>eDreams_logo_color</title>
    <desc>Created with Sketch.</desc>
    <g id="eDreams_logo_color" stroke="none" stroke-width="1" fill="none" fill-rule="evenodd">
        <g id="eDreams/24px/color">
            <g id="Logo_eDreams_RGB" transform="translate(0.000000, 3.000000)">
                <path d="M3.17991968,16.1571429 L1.67590361,16.1571429 C0.773493976,16.1571429 0.0322289157,16.8964286 0.0322289157,17.7964286 L0.0322289157,19.2964286 C0.0322289157,20.1964286 0.773493976,20.9357143 1.67590361,20.9357143 L3.17991968,20.9357143 C4.09307229,20.9357143 4.82359438,20.1964286 4.82359438,19.2964286 L4.82359438,17.7964286 C4.82359438,16.8964286 4.09307229,16.1571429 3.17991968,16.1571429 Z" id="Shape" fill="#FFCC00" fill-rule="nonzero"/>
                <path d="M10.5603414,12.075 L8.04648594,12.075 C6.90773092,12.075 5.99457831,12.9964286 5.99457831,14.1214286 L5.99457831,16.6285714 C5.99457831,17.7642857 6.9184739,18.675 8.04648594,18.675 L10.5603414,18.675 C11.6990964,18.675 12.612249,17.7535714 12.612249,16.6285714 L12.612249,14.1214286 C12.612249,12.9857143 11.6883534,12.075 10.5603414,12.075 Z" id="Shape" fill="#FFCC00" fill-rule="nonzero"/>
                <path d="M27.9961847,0.0964285714 L16.6838353,0.0964285714 C15.5450803,0.0964285714 14.6319277,1.01785714 14.6319277,2.14285714 L14.6319277,13.4142857 C14.6319277,14.55 15.5558233,15.4607143 16.6838353,15.4607143 L27.9854418,15.4607143 C29.1241968,15.4607143 30.0373494,14.5392857 30.0373494,13.4142857 L30.0373494,2.14285714 C30.0480924,1.00714286 29.1241968,0.0964285714 27.9961847,0.0964285714 Z" id="Shape" fill="#FFCC00" fill-rule="nonzero"/>
            </g>
        </g>
    </g>
</svg>